<svg xmlns="http://www.w3.org/2000/svg" fill="none" viewBox="0 0 100 100">
    <path d="M50 4.25C32.28 4.25 17.87 24.77 17.87 50S32.28 95.75 50 95.75 82.13 75.23 82.13 50 67.72 4.25 50 4.25zm21.59 55.63L67.29 50l4.3-9.88L80.38 50zm-10.65 6.47L50 71.67l-10.94-5.32L34.31 50l4.75-16.35L50 28.33l10.94 5.32L65.69 50zM40.77 78.2l-1.4-10 9.17 4.46zM50 73.42l8.79 6.31L50 93.6l-8.79-13.87zm9.23 4.78-7.77-5.58 9.17-4.46zM28.41 59.88 19.62 50l8.79-9.88 4.3 9.88zm5-12.08-3.81-8.73 7.6-4.37zm0 4.4 3.79 13.1-7.62-4.37zm25.82-30.4 1.4 10-9.17-4.46zM50 26.58l-8.79-6.31L50 6.4l8.79 13.87zm-9.23-4.78 7.77 5.58-9.17 4.46zm25.84 26L62.8 34.7l7.62 4.37zm0 4.4 3.81 8.73-7.62 4.37zm5.87-13.33 6.16-4.54A61.06 61.06 0 0 1 80.6 48zm-.19-1.73 1.5-15a50.86 50.86 0 0 1 4.43 10.61zm-1.55.38-8.48-4.86-1.6-11.48 11.78-.57zM59.4 18.43l-8-12.63a22.62 22.62 0 0 1 9.7 3zm-18.8 0-1.7-9.66a22.62 22.62 0 0 1 9.7-3zm-2.86 14.23-8.48 4.86-1.7-16.91 11.78.57zm-10 4.48-5.93-4.36a50.86 50.86 0 0 1 4.43-10.61zm-.19 1.73L19.4 48a61.06 61.06 0 0 1 2-13.66zm0 22.26-6.16 4.54A61.06 61.06 0 0 1 19.4 52zm.19 1.73-1.5 15a50.86 50.86 0 0 1-4.43-10.61zm1.55-.38 8.48 4.86 1.6 11.48-11.78.57zM40.6 81.57l8 12.63a22.62 22.62 0 0 1-9.7-3zm18.8 0 1.7 9.66a22.62 22.62 0 0 1-9.7 3zm2.86-14.23 8.48-4.86 1.7 16.91-11.78-.57zm10-4.48 5.93 4.36a50.86 50.86 0 0 1-4.43 10.61zm.19-1.73L80.6 52a61.06 61.06 0 0 1-2 13.66zm-.56-42-11.21.54 1.8-10.07a33.75 33.75 0 0 1 9.44 9.53zM37.52 9.6l1.77 10.07-11.21-.54a33.75 33.75 0 0 1 9.44-9.53zm-9.44 71.27 11.21-.54-1.77 10.07a33.75 33.75 0 0 1-9.44-9.53zm34.4 9.53-1.77-10.07 11.21.54a33.75 33.75 0 0 1-9.44 9.53z" />
    <style>
        path { fill: #000; }
        @media (prefers-color-scheme: dark) {
            path { fill: #FFF; }
        }
    </style>
</svg>
