<svg xmlns="http://www.w3.org/2000/svg" fill="none" viewBox="0 0 100 100">
    <path d="M79.32887,8.69759H20.67113L0,35.22354,49.99505,91.30241,100,35.22354Zm12.327,23.92714.00268.00346H72.8654l.00127-.00346,6.02409-16.37958ZM74.53947,13.67618,68.47558,30.13543,55.20264,13.67618Zm-10.44228,18.952H35.90281l.0028-.00346L49.99505,15.14988,64.09439,32.62473ZM44.7874,13.67618,31.51451,30.12547l-6.054-16.44929Zm-23.68812,2.569,6.02408,16.37958.00128.00346H8.33148l.00268-.00346ZM8.78534,37.60679H28.95679L43.13453,76.12767ZM49.99505,80.35948,34.26392,37.60679H65.72611ZM71.03331,37.60679H91.20469L56.8555,76.12767Z" />
    <style>
        path { fill: #000; }
        @media (prefers-color-scheme: dark) {
            path { fill: #FFF; }
        }
    </style>
</svg>
